# xmcd CD database file
#
# Track frame offsets:
#	187
#	33780
#	56057
#	77182
#	96282
#	108825
#	128622
#	149730
#	176120
#	195675
#	215817
#	239675
#
# Disc length: 3258 seconds
#
# Revision: 0
# Processed by: cddbd v1.5PL3 Copyright (c) Steve Scherf et al.
# Submitted via: CDex 1.51
#
DISCID=b40cb80c
DTITLE=Mari Nakamoto With Reggie Workman Trio - Summertime
DYEAR=1995
DGENRE=Jazz
TTITLE0=Summertime
TTITLE1=For All We Know
TTITLE2=I Thought About You
TTITLE3=Never Let Me Go
TTITLE4=I Don't Know What Time It Was
TTITLE5=The Good Life
TTITLE6=Yesterdays
TTITLE7=Little Girl Blue
TTITLE8=Angel Eves
TTITLE9=Please Send Me Someone To Love
TTITLE10=Ill Wind
TTITLE11=Seven Steps To Heaven
EXTD=YEAR: 1995
EXTT0=
EXTT1=
EXTT2=
EXTT3=
EXTT4=
EXTT5=
EXTT6=
EXTT7=
EXTT8=
EXTT9=
EXTT10=
EXTT11=
PLAYORDER=
